<svg xmlns="http://www.w3.org/2000/svg" fill="none" viewBox="0 0 36 36">
  <path fill="#3B82F6" d="M27.3916 1H8.54045C4.37598 1 1 4.37598 1 8.54045V27.3916c0 4.1645 3.37598 7.5404 7.54045 7.5404H27.3916c4.1645 0 7.5404-3.3759 7.5404-7.5404V8.54045C34.932 4.37598 31.5561 1 27.3916 1Z"/>
  <path fill="#fff" d="M12.75 28 7 18l5.75-10h11.5L30 18l-5.75 10h-11.5Zm1.2716-2.2222h8.9568L27.4291 18l-4.4507-7.7778h-8.9568L9.54327 18l4.47833 7.7778Z"/>
  <path fill="#fff" stroke="#fff" stroke-width="2" d="M18.4997 22.0001c-3.2118 0-5.1892-3.5111-3.5242-6.2576 1.6043-2.6463 5.4441-2.6463 7.0484 0 1.665 2.7465-.3124 6.2576-3.5242 6.2576Z"/>
</svg>